<svg width="168" height="71" viewBox="0 0 168 71" fill="none" xmlns="http://www.w3.org/2000/svg">
<path d="M50.8457 9.09668H48.1865V8.02344H50.8457C51.3607 8.02344 51.7777 7.94141 52.0967 7.77734C52.4157 7.61328 52.6481 7.38542 52.7939 7.09375C52.9443 6.80208 53.0195 6.4694 53.0195 6.0957C53.0195 5.75391 52.9443 5.43262 52.7939 5.13184C52.6481 4.83105 52.4157 4.58952 52.0967 4.40723C51.7777 4.22038 51.3607 4.12695 50.8457 4.12695H48.4941V13H47.1748V3.04688H50.8457C51.5977 3.04688 52.2334 3.17676 52.7529 3.43652C53.2725 3.69629 53.6667 4.05632 53.9355 4.5166C54.2044 4.97233 54.3389 5.49414 54.3389 6.08203C54.3389 6.72005 54.2044 7.26465 53.9355 7.71582C53.6667 8.16699 53.2725 8.51107 52.7529 8.74805C52.2334 8.98047 51.5977 9.09668 50.8457 9.09668ZM60.0947 11.7354V7.92773C60.0947 7.63607 60.0355 7.38314 59.917 7.16895C59.8031 6.9502 59.6299 6.78158 59.3975 6.66309C59.165 6.5446 58.8779 6.48535 58.5361 6.48535C58.2171 6.48535 57.9368 6.54004 57.6953 6.64941C57.4583 6.75879 57.2715 6.90234 57.1348 7.08008C57.0026 7.25781 56.9365 7.44922 56.9365 7.6543H55.6719C55.6719 7.38997 55.7402 7.12793 55.877 6.86816C56.0137 6.6084 56.2096 6.3737 56.4648 6.16406C56.7246 5.94987 57.0345 5.78125 57.3945 5.6582C57.7591 5.5306 58.1647 5.4668 58.6113 5.4668C59.1491 5.4668 59.623 5.55794 60.0332 5.74023C60.4479 5.92253 60.7715 6.19824 61.0039 6.56738C61.2409 6.93197 61.3594 7.38997 61.3594 7.94141V11.3867C61.3594 11.6328 61.3799 11.8949 61.4209 12.1729C61.4665 12.4508 61.5326 12.6901 61.6191 12.8906V13H60.2998C60.236 12.8542 60.1859 12.6605 60.1494 12.4189C60.113 12.1729 60.0947 11.945 60.0947 11.7354ZM60.3135 8.51562L60.3271 9.4043H59.0488C58.6888 9.4043 58.3675 9.43392 58.085 9.49316C57.8024 9.54785 57.5654 9.63216 57.374 9.74609C57.1826 9.86003 57.0368 10.0036 56.9365 10.1768C56.8363 10.3454 56.7861 10.5436 56.7861 10.7715C56.7861 11.0039 56.8385 11.2158 56.9434 11.4072C57.0482 11.5986 57.2054 11.7513 57.415 11.8652C57.6292 11.9746 57.8913 12.0293 58.2012 12.0293C58.5885 12.0293 58.9303 11.9473 59.2266 11.7832C59.5228 11.6191 59.7575 11.4186 59.9307 11.1816C60.1084 10.9447 60.2041 10.7145 60.2178 10.4912L60.7578 11.0996C60.7259 11.291 60.6393 11.5029 60.498 11.7354C60.3568 11.9678 60.1676 12.1911 59.9307 12.4053C59.6982 12.6149 59.4202 12.7904 59.0967 12.9316C58.7777 13.0684 58.4176 13.1367 58.0166 13.1367C57.5153 13.1367 57.0755 13.0387 56.6973 12.8428C56.3236 12.6468 56.0319 12.3848 55.8223 12.0566C55.6172 11.724 55.5146 11.3525 55.5146 10.9424C55.5146 10.5459 55.5921 10.1973 55.7471 9.89648C55.902 9.59115 56.1253 9.33822 56.417 9.1377C56.7087 8.93262 57.0596 8.77767 57.4697 8.67285C57.8799 8.56803 58.3379 8.51562 58.8438 8.51562H60.3135ZM66.1104 9.46582H64.75V8.68652H66.0078C66.3587 8.68652 66.6367 8.64323 66.8418 8.55664C67.0469 8.46549 67.1927 8.34017 67.2793 8.18066C67.3659 8.02116 67.4092 7.83431 67.4092 7.62012C67.4092 7.42871 67.359 7.2487 67.2588 7.08008C67.1631 6.9069 67.0081 6.7679 66.7939 6.66309C66.5798 6.55371 66.2926 6.49902 65.9326 6.49902C65.641 6.49902 65.3766 6.55143 65.1396 6.65625C64.9027 6.75651 64.7135 6.89551 64.5723 7.07324C64.4355 7.24642 64.3672 7.44238 64.3672 7.66113H63.1025C63.1025 7.20996 63.2301 6.82259 63.4854 6.49902C63.7451 6.1709 64.0892 5.91797 64.5176 5.74023C64.9505 5.5625 65.4222 5.47363 65.9326 5.47363C66.361 5.47363 66.7438 5.52148 67.0811 5.61719C67.4229 5.70833 67.7122 5.84505 67.9492 6.02734C68.1862 6.20508 68.3662 6.42839 68.4893 6.69727C68.6169 6.96159 68.6807 7.26921 68.6807 7.62012C68.6807 7.87077 68.6214 8.10775 68.5029 8.33105C68.3844 8.55436 68.2135 8.7526 67.9902 8.92578C67.7669 9.0944 67.4958 9.22656 67.1768 9.32227C66.8623 9.41797 66.5068 9.46582 66.1104 9.46582ZM64.75 8.9873H66.1104C66.5524 8.9873 66.9421 9.0306 67.2793 9.11719C67.6165 9.19922 67.8991 9.32227 68.127 9.48633C68.3548 9.65039 68.5257 9.85319 68.6396 10.0947C68.7581 10.3317 68.8174 10.6051 68.8174 10.915C68.8174 11.2614 68.7467 11.5736 68.6055 11.8516C68.4688 12.125 68.2728 12.3574 68.0176 12.5488C67.7624 12.7402 67.457 12.8861 67.1016 12.9863C66.7507 13.0866 66.361 13.1367 65.9326 13.1367C65.4541 13.1367 64.9893 13.0547 64.5381 12.8906C64.0869 12.7266 63.7155 12.4736 63.4238 12.1318C63.1322 11.7855 62.9863 11.3457 62.9863 10.8125H64.251C64.251 11.0358 64.3216 11.2477 64.4629 11.4482C64.6042 11.6488 64.8001 11.8105 65.0508 11.9336C65.306 12.0566 65.5999 12.1182 65.9326 12.1182C66.2881 12.1182 66.5843 12.0635 66.8213 11.9541C67.0583 11.8447 67.236 11.6989 67.3545 11.5166C67.4775 11.3343 67.5391 11.1361 67.5391 10.9219C67.5391 10.6439 67.4844 10.4206 67.375 10.252C67.2656 10.0833 67.097 9.96029 66.8691 9.88281C66.6458 9.80078 66.3587 9.75977 66.0078 9.75977H64.75V8.9873ZM71.7227 7.02539V15.8438H70.4512V5.60352H71.6133L71.7227 7.02539ZM76.7061 9.24023V9.38379C76.7061 9.92155 76.6423 10.4206 76.5146 10.8809C76.387 11.3366 76.2002 11.7331 75.9541 12.0703C75.7126 12.4076 75.4141 12.6696 75.0586 12.8564C74.7031 13.0433 74.2952 13.1367 73.835 13.1367C73.3656 13.1367 72.9508 13.0592 72.5908 12.9043C72.2308 12.7493 71.9255 12.5238 71.6748 12.2275C71.4242 11.9313 71.2236 11.5758 71.0732 11.1611C70.9274 10.7464 70.8271 10.2793 70.7725 9.75977V8.99414C70.8271 8.44727 70.9297 7.95736 71.0801 7.52441C71.2305 7.09147 71.4287 6.72233 71.6748 6.41699C71.9255 6.1071 72.2285 5.8724 72.584 5.71289C72.9395 5.54883 73.3496 5.4668 73.8145 5.4668C74.2793 5.4668 74.6917 5.55794 75.0518 5.74023C75.4118 5.91797 75.7148 6.17318 75.9609 6.50586C76.207 6.83854 76.3916 7.2373 76.5146 7.70215C76.6423 8.16243 76.7061 8.67513 76.7061 9.24023ZM75.4346 9.38379V9.24023C75.4346 8.87109 75.3958 8.52474 75.3184 8.20117C75.2409 7.87305 75.1201 7.58594 74.9561 7.33984C74.7965 7.08919 74.5915 6.89323 74.3408 6.75195C74.0902 6.60612 73.7917 6.5332 73.4453 6.5332C73.1263 6.5332 72.8483 6.58789 72.6113 6.69727C72.3789 6.80664 72.1807 6.95475 72.0166 7.1416C71.8525 7.32389 71.7181 7.53353 71.6133 7.77051C71.513 8.00293 71.4378 8.24447 71.3877 8.49512V10.2656C71.4788 10.5846 71.6064 10.8854 71.7705 11.168C71.9346 11.446 72.1533 11.6715 72.4268 11.8447C72.7002 12.0133 73.0443 12.0977 73.459 12.0977C73.8008 12.0977 74.0947 12.027 74.3408 11.8857C74.5915 11.7399 74.7965 11.5417 74.9561 11.291C75.1201 11.0404 75.2409 10.7533 75.3184 10.4297C75.3958 10.1016 75.4346 9.75293 75.4346 9.38379ZM82.6807 11.7354V7.92773C82.6807 7.63607 82.6214 7.38314 82.5029 7.16895C82.389 6.9502 82.2158 6.78158 81.9834 6.66309C81.751 6.5446 81.4639 6.48535 81.1221 6.48535C80.8031 6.48535 80.5228 6.54004 80.2812 6.64941C80.0443 6.75879 79.8574 6.90234 79.7207 7.08008C79.5885 7.25781 79.5225 7.44922 79.5225 7.6543H78.2578C78.2578 7.38997 78.3262 7.12793 78.4629 6.86816C78.5996 6.6084 78.7956 6.3737 79.0508 6.16406C79.3105 5.94987 79.6204 5.78125 79.9805 5.6582C80.3451 5.5306 80.7507 5.4668 81.1973 5.4668C81.735 5.4668 82.209 5.55794 82.6191 5.74023C83.0339 5.92253 83.3574 6.19824 83.5898 6.56738C83.8268 6.93197 83.9453 7.38997 83.9453 7.94141V11.3867C83.9453 11.6328 83.9658 11.8949 84.0068 12.1729C84.0524 12.4508 84.1185 12.6901 84.2051 12.8906V13H82.8857C82.8219 12.8542 82.7718 12.6605 82.7354 12.4189C82.6989 12.1729 82.6807 11.945 82.6807 11.7354ZM82.8994 8.51562L82.9131 9.4043H81.6348C81.2747 9.4043 80.9535 9.43392 80.6709 9.49316C80.3883 9.54785 80.1514 9.63216 79.96 9.74609C79.7686 9.86003 79.6227 10.0036 79.5225 10.1768C79.4222 10.3454 79.3721 10.5436 79.3721 10.7715C79.3721 11.0039 79.4245 11.2158 79.5293 11.4072C79.6341 11.5986 79.7913 11.7513 80.001 11.8652C80.2152 11.9746 80.4772 12.0293 80.7871 12.0293C81.1745 12.0293 81.5163 11.9473 81.8125 11.7832C82.1087 11.6191 82.3434 11.4186 82.5166 11.1816C82.6943 10.9447 82.79 10.7145 82.8037 10.4912L83.3438 11.0996C83.3118 11.291 83.2253 11.5029 83.084 11.7354C82.9427 11.9678 82.7536 12.1911 82.5166 12.4053C82.2842 12.6149 82.0062 12.7904 81.6826 12.9316C81.3636 13.0684 81.0036 13.1367 80.6025 13.1367C80.1012 13.1367 79.6615 13.0387 79.2832 12.8428C78.9095 12.6468 78.6178 12.3848 78.4082 12.0566C78.2031 11.724 78.1006 11.3525 78.1006 10.9424C78.1006 10.5459 78.1781 10.1973 78.333 9.89648C78.488 9.59115 78.7113 9.33822 79.0029 9.1377C79.2946 8.93262 79.6455 8.77767 80.0557 8.67285C80.4658 8.56803 80.9238 8.51562 81.4297 8.51562H82.8994ZM90.6787 2.38379H91.7178C91.7178 2.8304 91.6494 3.18587 91.5127 3.4502C91.376 3.70996 91.1891 3.91048 90.9521 4.05176C90.7197 4.19303 90.4554 4.30013 90.1592 4.37305C89.8675 4.44596 89.5645 4.5166 89.25 4.58496C88.8581 4.66699 88.4935 4.79688 88.1562 4.97461C87.8236 5.14779 87.5365 5.39388 87.2949 5.71289C87.0579 6.0319 86.8825 6.44661 86.7686 6.95703C86.6592 7.46745 86.6296 8.09863 86.6797 8.85059V9.47949H85.6406V8.85059C85.6406 8.00749 85.7204 7.27148 85.8799 6.64258C86.0439 6.01367 86.2741 5.48275 86.5703 5.0498C86.8665 4.61686 87.2174 4.27279 87.623 4.01758C88.0332 3.76237 88.4844 3.58691 88.9766 3.49121C89.332 3.42285 89.6374 3.34993 89.8926 3.27246C90.1478 3.19043 90.3415 3.08105 90.4736 2.94434C90.6104 2.80762 90.6787 2.62077 90.6787 2.38379ZM89.1816 6.02734C89.6647 6.02734 90.0954 6.11165 90.4736 6.28027C90.8519 6.44889 91.1732 6.68359 91.4375 6.98438C91.7018 7.28516 91.9023 7.64062 92.0391 8.05078C92.1803 8.45638 92.251 8.89844 92.251 9.37695V9.52734C92.251 10.0423 92.1758 10.5208 92.0254 10.9629C91.8796 11.4004 91.6631 11.7832 91.376 12.1113C91.0934 12.4349 90.7471 12.6878 90.3369 12.8701C89.9313 13.0524 89.4688 13.1436 88.9492 13.1436C88.4297 13.1436 87.9648 13.0524 87.5547 12.8701C87.1491 12.6878 86.8027 12.4349 86.5156 12.1113C86.2285 11.7832 86.0098 11.4004 85.8594 10.9629C85.7135 10.5208 85.6406 10.0423 85.6406 9.52734V9.37695C85.6406 9.26302 85.6611 9.15137 85.7021 9.04199C85.7432 8.93262 85.7933 8.82096 85.8525 8.70703C85.9163 8.5931 85.9733 8.47233 86.0234 8.34473C86.1921 7.93457 86.4222 7.55404 86.7139 7.20312C87.0101 6.85221 87.3633 6.56966 87.7734 6.35547C88.1882 6.13672 88.6576 6.02734 89.1816 6.02734ZM88.9355 7.05957C88.4707 7.05957 88.0879 7.16667 87.7871 7.38086C87.4909 7.59505 87.2699 7.87988 87.124 8.23535C86.9782 8.58626 86.9053 8.9668 86.9053 9.37695V9.52734C86.9053 9.8737 86.9463 10.2018 87.0283 10.5117C87.1104 10.8216 87.2334 11.0973 87.3975 11.3389C87.5661 11.5758 87.778 11.7627 88.0332 11.8994C88.293 12.0361 88.5983 12.1045 88.9492 12.1045C89.3001 12.1045 89.6032 12.0361 89.8584 11.8994C90.1136 11.7627 90.3232 11.5758 90.4873 11.3389C90.6514 11.0973 90.7744 10.8216 90.8564 10.5117C90.9385 10.2018 90.9795 9.8737 90.9795 9.52734V9.37695C90.9795 9.06706 90.9385 8.77311 90.8564 8.49512C90.7744 8.21712 90.6491 7.97103 90.4805 7.75684C90.3164 7.54264 90.1045 7.37402 89.8447 7.25098C89.5895 7.12337 89.2865 7.05957 88.9355 7.05957ZM93.3516 9.38379V9.22656C93.3516 8.69336 93.429 8.19889 93.584 7.74316C93.7389 7.28288 93.9622 6.88411 94.2539 6.54688C94.5456 6.20508 94.8988 5.94076 95.3135 5.75391C95.7282 5.5625 96.193 5.4668 96.708 5.4668C97.2275 5.4668 97.6947 5.5625 98.1094 5.75391C98.5286 5.94076 98.8841 6.20508 99.1758 6.54688C99.472 6.88411 99.6976 7.28288 99.8525 7.74316C100.007 8.19889 100.085 8.69336 100.085 9.22656V9.38379C100.085 9.91699 100.007 10.4115 99.8525 10.8672C99.6976 11.3229 99.472 11.7217 99.1758 12.0635C98.8841 12.4007 98.5309 12.665 98.1162 12.8564C97.7061 13.0433 97.2412 13.1367 96.7217 13.1367C96.2021 13.1367 95.735 13.0433 95.3203 12.8564C94.9056 12.665 94.5501 12.4007 94.2539 12.0635C93.9622 11.7217 93.7389 11.3229 93.584 10.8672C93.429 10.4115 93.3516 9.91699 93.3516 9.38379ZM94.6162 9.22656V9.38379C94.6162 9.75293 94.6595 10.1016 94.7461 10.4297C94.8327 10.7533 94.9626 11.0404 95.1357 11.291C95.3135 11.5417 95.5345 11.7399 95.7988 11.8857C96.0632 12.027 96.3708 12.0977 96.7217 12.0977C97.068 12.0977 97.3711 12.027 97.6309 11.8857C97.8952 11.7399 98.1139 11.5417 98.2871 11.291C98.4603 11.0404 98.5902 10.7533 98.6768 10.4297C98.7679 10.1016 98.8135 9.75293 98.8135 9.38379V9.22656C98.8135 8.86198 98.7679 8.5179 98.6768 8.19434C98.5902 7.86621 98.458 7.57682 98.2803 7.32617C98.1071 7.07096 97.8883 6.87044 97.624 6.72461C97.3643 6.57878 97.0589 6.50586 96.708 6.50586C96.3617 6.50586 96.0563 6.57878 95.792 6.72461C95.5322 6.87044 95.3135 7.07096 95.1357 7.32617C94.9626 7.57682 94.8327 7.86621 94.7461 8.19434C94.6595 8.5179 94.6162 8.86198 94.6162 9.22656ZM104.535 5.60352V13H103.264V5.60352H104.535ZM107.017 5.60352V6.62891H100.83V5.60352H107.017ZM109.635 5.60352V13H108.37V5.60352H109.635ZM114.488 5.60352L110.981 9.8418H109.211L109.02 8.73438H110.469L112.95 5.60352H114.488ZM113.128 13L110.407 9.65039L111.221 8.73438L114.734 13H113.128ZM120.196 11.7354V7.92773C120.196 7.63607 120.137 7.38314 120.019 7.16895C119.905 6.9502 119.731 6.78158 119.499 6.66309C119.267 6.5446 118.979 6.48535 118.638 6.48535C118.319 6.48535 118.038 6.54004 117.797 6.64941C117.56 6.75879 117.373 6.90234 117.236 7.08008C117.104 7.25781 117.038 7.44922 117.038 7.6543H115.773C115.773 7.38997 115.842 7.12793 115.979 6.86816C116.115 6.6084 116.311 6.3737 116.566 6.16406C116.826 5.94987 117.136 5.78125 117.496 5.6582C117.861 5.5306 118.266 5.4668 118.713 5.4668C119.251 5.4668 119.725 5.55794 120.135 5.74023C120.549 5.92253 120.873 6.19824 121.105 6.56738C121.342 6.93197 121.461 7.38997 121.461 7.94141V11.3867C121.461 11.6328 121.481 11.8949 121.522 12.1729C121.568 12.4508 121.634 12.6901 121.721 12.8906V13H120.401C120.338 12.8542 120.287 12.6605 120.251 12.4189C120.215 12.1729 120.196 11.945 120.196 11.7354ZM120.415 8.51562L120.429 9.4043H119.15C118.79 9.4043 118.469 9.43392 118.187 9.49316C117.904 9.54785 117.667 9.63216 117.476 9.74609C117.284 9.86003 117.138 10.0036 117.038 10.1768C116.938 10.3454 116.888 10.5436 116.888 10.7715C116.888 11.0039 116.94 11.2158 117.045 11.4072C117.15 11.5986 117.307 11.7513 117.517 11.8652C117.731 11.9746 117.993 12.0293 118.303 12.0293C118.69 12.0293 119.032 11.9473 119.328 11.7832C119.624 11.6191 119.859 11.4186 120.032 11.1816C120.21 10.9447 120.306 10.7145 120.319 10.4912L120.859 11.0996C120.827 11.291 120.741 11.5029 120.6 11.7354C120.458 11.9678 120.269 12.1911 120.032 12.4053C119.8 12.6149 119.522 12.7904 119.198 12.9316C118.879 13.0684 118.519 13.1367 118.118 13.1367C117.617 13.1367 117.177 13.0387 116.799 12.8428C116.425 12.6468 116.133 12.3848 115.924 12.0566C115.719 11.724 115.616 11.3525 115.616 10.9424C115.616 10.5459 115.694 10.1973 115.849 9.89648C116.004 9.59115 116.227 9.33822 116.519 9.1377C116.81 8.93262 117.161 8.77767 117.571 8.67285C117.981 8.56803 118.439 8.51562 118.945 8.51562H120.415ZM129.883 12.0977C130.184 12.0977 130.462 12.0361 130.717 11.9131C130.972 11.79 131.182 11.6214 131.346 11.4072C131.51 11.1885 131.603 10.9401 131.626 10.6621H132.829C132.806 11.0996 132.658 11.5075 132.385 11.8857C132.116 12.2594 131.763 12.5625 131.325 12.7949C130.888 13.0228 130.407 13.1367 129.883 13.1367C129.327 13.1367 128.841 13.0387 128.427 12.8428C128.017 12.6468 127.675 12.3779 127.401 12.0361C127.132 11.6943 126.93 11.3024 126.793 10.8604C126.661 10.4137 126.595 9.94206 126.595 9.44531V9.1582C126.595 8.66146 126.661 8.19206 126.793 7.75C126.93 7.30339 127.132 6.90918 127.401 6.56738C127.675 6.22559 128.017 5.95671 128.427 5.76074C128.841 5.56478 129.327 5.4668 129.883 5.4668C130.462 5.4668 130.967 5.58529 131.4 5.82227C131.833 6.05469 132.173 6.3737 132.419 6.7793C132.67 7.18034 132.806 7.63607 132.829 8.14648H131.626C131.603 7.84115 131.517 7.56543 131.366 7.31934C131.22 7.07324 131.02 6.87728 130.765 6.73145C130.514 6.58105 130.22 6.50586 129.883 6.50586C129.495 6.50586 129.17 6.58333 128.905 6.73828C128.646 6.88867 128.438 7.09375 128.283 7.35352C128.133 7.60872 128.023 7.89355 127.955 8.20801C127.891 8.5179 127.859 8.83464 127.859 9.1582V9.44531C127.859 9.76888 127.891 10.0879 127.955 10.4023C128.019 10.7168 128.126 11.0016 128.276 11.2568C128.431 11.512 128.639 11.7171 128.898 11.8721C129.163 12.0225 129.491 12.0977 129.883 12.0977ZM138.612 11.7354V7.92773C138.612 7.63607 138.553 7.38314 138.435 7.16895C138.321 6.9502 138.147 6.78158 137.915 6.66309C137.683 6.5446 137.396 6.48535 137.054 6.48535C136.735 6.48535 136.454 6.54004 136.213 6.64941C135.976 6.75879 135.789 6.90234 135.652 7.08008C135.52 7.25781 135.454 7.44922 135.454 7.6543H134.189C134.189 7.38997 134.258 7.12793 134.395 6.86816C134.531 6.6084 134.727 6.3737 134.982 6.16406C135.242 5.94987 135.552 5.78125 135.912 5.6582C136.277 5.5306 136.682 5.4668 137.129 5.4668C137.667 5.4668 138.141 5.55794 138.551 5.74023C138.965 5.92253 139.289 6.19824 139.521 6.56738C139.758 6.93197 139.877 7.38997 139.877 7.94141V11.3867C139.877 11.6328 139.897 11.8949 139.938 12.1729C139.984 12.4508 140.05 12.6901 140.137 12.8906V13H138.817C138.754 12.8542 138.703 12.6605 138.667 12.4189C138.631 12.1729 138.612 11.945 138.612 11.7354ZM138.831 8.51562L138.845 9.4043H137.566C137.206 9.4043 136.885 9.43392 136.603 9.49316C136.32 9.54785 136.083 9.63216 135.892 9.74609C135.7 9.86003 135.554 10.0036 135.454 10.1768C135.354 10.3454 135.304 10.5436 135.304 10.7715C135.304 11.0039 135.356 11.2158 135.461 11.4072C135.566 11.5986 135.723 11.7513 135.933 11.8652C136.147 11.9746 136.409 12.0293 136.719 12.0293C137.106 12.0293 137.448 11.9473 137.744 11.7832C138.04 11.6191 138.275 11.4186 138.448 11.1816C138.626 10.9447 138.722 10.7145 138.735 10.4912L139.275 11.0996C139.243 11.291 139.157 11.5029 139.016 11.7354C138.874 11.9678 138.685 12.1911 138.448 12.4053C138.216 12.6149 137.938 12.7904 137.614 12.9316C137.295 13.0684 136.935 13.1367 136.534 13.1367C136.033 13.1367 135.593 13.0387 135.215 12.8428C134.841 12.6468 134.549 12.3848 134.34 12.0566C134.135 11.724 134.032 11.3525 134.032 10.9424C134.032 10.5459 134.11 10.1973 134.265 9.89648C134.42 9.59115 134.643 9.33822 134.935 9.1377C135.226 8.93262 135.577 8.77767 135.987 8.67285C136.397 8.56803 136.855 8.51562 137.361 8.51562H138.831ZM143.233 10.9971L146.645 5.60352H147.916V13H146.645V7.60645L143.233 13H141.976V5.60352H143.233V10.9971ZM145.954 2.92383H146.979C146.979 3.2793 146.897 3.59603 146.733 3.87402C146.569 4.14746 146.335 4.36165 146.029 4.5166C145.724 4.67155 145.362 4.74902 144.942 4.74902C144.309 4.74902 143.808 4.5804 143.438 4.24316C143.074 3.90137 142.892 3.46159 142.892 2.92383H143.917C143.917 3.19271 143.994 3.42969 144.149 3.63477C144.304 3.83984 144.569 3.94238 144.942 3.94238C145.307 3.94238 145.567 3.83984 145.722 3.63477C145.877 3.42969 145.954 3.19271 145.954 2.92383ZM152.961 5.60352V13H151.689V5.60352H152.961ZM155.442 5.60352V6.62891H149.256V5.60352H155.442ZM160.938 11.7354V7.92773C160.938 7.63607 160.879 7.38314 160.761 7.16895C160.647 6.9502 160.474 6.78158 160.241 6.66309C160.009 6.5446 159.722 6.48535 159.38 6.48535C159.061 6.48535 158.781 6.54004 158.539 6.64941C158.302 6.75879 158.115 6.90234 157.979 7.08008C157.846 7.25781 157.78 7.44922 157.78 7.6543H156.516C156.516 7.38997 156.584 7.12793 156.721 6.86816C156.857 6.6084 157.053 6.3737 157.309 6.16406C157.568 5.94987 157.878 5.78125 158.238 5.6582C158.603 5.5306 159.008 5.4668 159.455 5.4668C159.993 5.4668 160.467 5.55794 160.877 5.74023C161.292 5.92253 161.615 6.19824 161.848 6.56738C162.085 6.93197 162.203 7.38997 162.203 7.94141V11.3867C162.203 11.6328 162.224 11.8949 162.265 12.1729C162.31 12.4508 162.376 12.6901 162.463 12.8906V13H161.144C161.08 12.8542 161.03 12.6605 160.993 12.4189C160.957 12.1729 160.938 11.945 160.938 11.7354ZM161.157 8.51562L161.171 9.4043H159.893C159.533 9.4043 159.211 9.43392 158.929 9.49316C158.646 9.54785 158.409 9.63216 158.218 9.74609C158.026 9.86003 157.881 10.0036 157.78 10.1768C157.68 10.3454 157.63 10.5436 157.63 10.7715C157.63 11.0039 157.682 11.2158 157.787 11.4072C157.892 11.5986 158.049 11.7513 158.259 11.8652C158.473 11.9746 158.735 12.0293 159.045 12.0293C159.432 12.0293 159.774 11.9473 160.07 11.7832C160.367 11.6191 160.601 11.4186 160.774 11.1816C160.952 10.9447 161.048 10.7145 161.062 10.4912L161.602 11.0996C161.57 11.291 161.483 11.5029 161.342 11.7354C161.201 11.9678 161.011 12.1911 160.774 12.4053C160.542 12.6149 160.264 12.7904 159.94 12.9316C159.621 13.0684 159.261 13.1367 158.86 13.1367C158.359 13.1367 157.919 13.0387 157.541 12.8428C157.167 12.6468 156.876 12.3848 156.666 12.0566C156.461 11.724 156.358 11.3525 156.358 10.9424C156.358 10.5459 156.436 10.1973 156.591 9.89648C156.746 9.59115 156.969 9.33822 157.261 9.1377C157.552 8.93262 157.903 8.77767 158.313 8.67285C158.724 8.56803 159.182 8.51562 159.688 8.51562H161.157ZM164.138 12.3301C164.138 12.1159 164.204 11.9359 164.336 11.79C164.473 11.6396 164.669 11.5645 164.924 11.5645C165.179 11.5645 165.373 11.6396 165.505 11.79C165.642 11.9359 165.71 12.1159 165.71 12.3301C165.71 12.5397 165.642 12.7174 165.505 12.8633C165.373 13.0091 165.179 13.082 164.924 13.082C164.669 13.082 164.473 13.0091 164.336 12.8633C164.204 12.7174 164.138 12.5397 164.138 12.3301ZM164.145 6.29395C164.145 6.07975 164.211 5.89974 164.343 5.75391C164.479 5.60352 164.675 5.52832 164.931 5.52832C165.186 5.52832 165.38 5.60352 165.512 5.75391C165.648 5.89974 165.717 6.07975 165.717 6.29395C165.717 6.50358 165.648 6.68132 165.512 6.82715C165.38 6.97298 165.186 7.0459 164.931 7.0459C164.675 7.0459 164.479 6.97298 164.343 6.82715C164.211 6.68132 164.145 6.50358 164.145 6.29395Z" fill="white"/>
<path d="M59.4775 32.2075L56.8364 32.2218L56.9231 42.4847L54.6342 42.4971L54.5476 32.2341L51.9065 32.2484L51.8891 30.1773L59.46 30.1364L59.4775 32.2075Z" fill="white"/>
<path d="M68.3203 42.4232L67.2597 39.84L62.5234 39.8655L61.5065 42.46L59.0239 42.4734L63.973 30.112L65.7689 30.1023L70.7853 42.4099L68.3203 42.4232ZM63.2288 37.9015L66.5741 37.8834L64.8639 33.4544L63.2288 37.9015Z" fill="white"/>
<path d="M72.0523 30.0684L75.4504 30.0501C76.7416 30.0431 77.7419 30.3459 78.4514 30.9585C79.2319 31.6447 79.627 32.5672 79.6368 33.726C79.6476 35.0081 79.198 35.9783 78.288 36.6366C77.938 36.8974 77.5111 37.0785 77.0072 37.1798L80.7133 42.3563L77.861 42.3717L74.6852 37.4328L74.4034 37.4343L74.4453 42.3901L72.1564 42.4025L72.0523 30.0684ZM74.3577 32.0162L74.3891 35.7331L75.0405 35.7295C75.2283 35.7285 75.4102 35.7152 75.586 35.6896C75.7735 35.6516 76.0136 35.5825 76.3062 35.4823C76.5987 35.3698 76.8319 35.1774 77.0056 34.9052C77.191 34.6207 77.282 34.2688 77.2784 33.8497C77.2749 33.4305 77.184 33.0858 77.0056 32.8156C76.8271 32.533 76.5908 32.3432 76.2965 32.2461C76.0021 32.1368 75.7668 32.0702 75.5905 32.0465C75.4142 32.0228 75.2322 32.0115 75.0444 32.0125L74.3577 32.0162Z" fill="white"/>
<path d="M88.1794 37.7853L88.1619 35.7142L93.5496 35.6851L93.5509 35.833C93.5695 38.0397 93.0087 39.7441 91.8685 40.9461C90.8447 42.0365 89.4583 42.5865 87.7094 42.5959C85.9252 42.6055 84.5003 42.0585 83.4345 40.9546C82.2621 39.7405 81.6678 38.1595 81.6513 36.2116C81.6357 34.3625 82.198 32.8307 83.3381 31.6163C84.5012 30.3525 86.0395 29.7155 87.9527 29.7052C88.9857 29.6996 89.8913 29.9104 90.6696 30.3377C91.5775 30.8136 92.3175 31.5617 92.8895 32.5819L90.9095 33.7206C90.5872 33.0813 90.1253 32.5968 89.5238 32.2672C89.0287 32.0109 88.4759 31.8845 87.8655 31.8878C86.7622 31.8937 85.8614 32.2623 85.1633 32.9934C84.3836 33.799 83.9995 34.886 84.0111 36.2544C84.022 37.5488 84.4182 38.5884 85.1995 39.3732C85.898 40.0722 86.7695 40.4188 87.8142 40.4132C88.7298 40.4083 89.4965 40.1575 90.1145 39.6611C90.674 39.2019 91.0385 38.5712 91.2078 37.7689L88.1794 37.7853Z" fill="white"/>
<path d="M102.123 29.906L102.14 31.9771L97.9146 31.9999L97.9379 34.7552L101.987 34.7334L102.005 36.8045L97.9554 36.8263L97.9838 40.1919L102.209 40.169L102.227 42.2401L95.7124 42.2753L95.6083 29.9412L102.123 29.906Z" fill="white"/>
<path d="M111.077 31.9289L108.436 31.9431L108.523 42.2061L106.234 42.2185L106.147 31.9555L103.506 31.9698L103.489 29.8987L111.06 29.8578L111.077 31.9289Z" fill="white"/>
<path d="M118.944 36.9719L118.938 36.2322L123.868 36.2056C123.882 37.8329 123.494 39.1849 122.705 40.2618C121.683 41.6481 120.216 42.3464 118.303 42.3567C116.566 42.3661 115.111 41.776 113.939 40.5865C112.778 39.3969 112.191 37.8837 112.175 36.0468C112.16 34.2346 112.734 32.7213 113.897 31.5068C115.073 30.2799 116.523 29.6618 118.249 29.6525C119.598 29.6452 120.829 30.0824 121.94 30.9641C122.483 31.405 122.957 31.9202 123.361 32.5098L122.749 33.0309C122.463 32.527 122.084 32.0729 121.611 31.6686C120.618 30.8109 119.493 30.3855 118.237 30.3923C116.735 30.4004 115.478 30.9558 114.466 32.0585C113.465 33.1612 112.972 34.5015 112.985 36.0794C112.998 37.6328 113.508 38.9491 114.515 40.0286C115.522 41.0958 116.777 41.6253 118.279 41.6172C119.206 41.6122 120.026 41.4043 120.739 40.9936C121.463 40.5705 121.999 40.0745 122.346 39.5055C122.809 38.7387 123.06 37.8866 123.099 36.9495L118.944 36.9719Z" fill="white"/>
<path d="M132.272 42.0779L131.391 42.0826L127.539 36.2782L127.187 36.2801L127.236 42.1051L126.461 42.1093L126.357 29.7752L128.047 29.7661C129.116 29.7603 129.945 29.9654 130.535 30.3814C131.35 30.9687 131.763 31.848 131.772 33.0192C131.778 33.6972 131.625 34.3083 131.313 34.8524C131 35.3842 130.505 35.7753 129.826 36.0255C129.381 36.1882 128.901 36.2709 128.384 36.2737L132.272 42.0779ZM127.138 30.5107L127.181 35.5405L128.307 35.5344C129.141 35.5299 129.79 35.3045 130.256 34.8581C130.734 34.4117 130.969 33.794 130.962 33.005C130.954 31.9695 130.601 31.2563 129.905 30.8656C129.493 30.6212 128.893 30.5012 128.106 30.5054L127.138 30.5107Z" fill="white"/>
<path d="M135.545 31.4084C136.708 30.1693 138.147 29.5451 139.861 29.5358C141.574 29.5266 143.023 30.1352 144.208 31.3616C145.392 32.5881 145.991 34.0889 146.006 35.8641C146.021 37.6394 145.447 39.1465 144.284 40.3857C143.12 41.6125 141.682 42.2305 139.968 42.2398C138.242 42.2491 136.788 41.6467 135.604 40.4325C134.431 39.206 133.837 37.7052 133.822 35.9299C133.807 34.1547 134.382 32.6475 135.545 31.4084ZM136.18 39.9116C137.199 40.9787 138.459 41.5082 139.962 41.5001C141.464 41.492 142.716 40.9489 143.716 39.8709C144.716 38.7806 145.21 37.4465 145.196 35.8685C145.183 34.2782 144.667 32.9495 143.649 31.8824C142.63 30.803 141.369 30.2674 139.867 30.2755C138.365 30.2836 137.113 30.8328 136.113 31.9231C135.112 33.0011 134.619 34.3353 134.632 35.9256C134.646 37.5035 135.162 38.8322 136.18 39.9116Z" fill="white"/>
<path d="M148.486 29.6557L149.261 29.6515L149.326 37.3626C149.331 38.016 149.365 38.5398 149.427 38.934C149.501 39.3157 149.639 39.6787 149.841 40.0228C150.151 40.5389 150.559 40.9066 151.065 41.1258C151.584 41.3325 152.089 41.4346 152.582 41.4319C153.075 41.4293 153.573 41.3218 154.076 41.1095C154.591 40.8848 154.999 40.5127 155.299 39.9933C155.496 39.6471 155.622 39.2827 155.678 38.9002C155.745 38.5053 155.775 37.9812 155.77 37.3278L155.705 29.6167L156.479 29.6125L156.545 37.3236C156.551 38.088 156.515 38.6984 156.437 39.155C156.358 39.6116 156.18 40.0564 155.902 40.4894C155.184 41.6028 154.079 42.1636 152.589 42.1716C151.098 42.1797 149.984 41.6309 149.247 40.5253C148.961 40.0954 148.776 39.6525 148.69 39.1968C148.604 38.7412 148.558 38.1311 148.551 37.3668L148.486 29.6557Z" fill="white"/>
<path d="M161.989 36.0552L160.474 36.0634L160.524 41.9253L159.749 41.9295L159.645 29.5954L161.916 29.5832C162.914 29.5778 163.738 29.8569 164.388 30.4205C165.039 30.9718 165.368 31.759 165.377 32.7822C165.385 33.7931 165.081 34.5899 164.464 35.1727C163.847 35.7555 163.021 36.0497 161.989 36.0552ZM160.426 30.3309L160.468 35.3237L162.017 35.3154C162.792 35.3112 163.412 35.0859 163.878 34.6396C164.344 34.1809 164.573 33.5694 164.567 32.8051C164.56 32.0284 164.315 31.4195 163.83 30.9783C163.356 30.537 162.697 30.3187 161.852 30.3232L160.426 30.3309Z" fill="white"/>
<path d="M59.0922 53.3112L59.031 46.0624L59.7352 46.0586L59.849 59.5392L59.1448 59.543L59.1334 58.1931C58.4965 59.2321 57.5736 59.7549 56.3646 59.7614C55.3904 59.7667 54.554 59.4198 53.8555 58.7209C53.1687 58.0095 52.82 57.0251 52.8094 55.7677C52.7985 54.4856 53.1366 53.516 53.8237 52.8588C54.5106 52.1894 55.3353 51.8521 56.2978 51.8469C57.4951 51.8404 58.4265 52.3285 59.0922 53.3112ZM56.3037 52.5496C55.5173 52.5538 54.8564 52.8348 54.3212 53.3924C53.7977 53.95 53.5402 54.7343 53.5487 55.7452C53.5575 56.7931 53.8403 57.6114 54.397 58.2001C54.9535 58.7766 55.6192 59.0627 56.3939 59.0585C57.1568 59.0544 57.8058 58.7612 58.3409 58.1788C58.8876 57.5841 59.1565 56.7628 59.1477 55.7149C59.14 54.8027 58.8812 54.0459 58.3714 53.4445C57.8615 52.8432 57.1723 52.5449 56.3037 52.5496Z" fill="white"/>
<path d="M62.3141 51.9808L63.0184 51.977L63.0821 59.5217L62.3778 59.5255L62.3141 51.9808ZM63.0894 49.9609C62.9731 50.0848 62.8269 50.1473 62.6508 50.1482C62.4747 50.1492 62.3216 50.0883 62.1915 49.9658C62.0729 49.8308 62.0128 49.6647 62.0112 49.4674C62.0095 49.2702 62.0669 49.1096 62.1832 48.9857C62.3112 48.8494 62.4632 48.7808 62.6393 48.7798C62.8153 48.7789 62.9626 48.8459 63.0811 48.9808C63.2113 49.1034 63.2772 49.2633 63.2789 49.4606C63.2805 49.6578 63.2174 49.8246 63.0894 49.9609Z" fill="white"/>
<path d="M71.4625 51.9314L72.1668 51.9276L72.2286 59.2504C72.2405 60.6681 71.927 61.767 71.288 62.5472C70.6608 63.3396 69.7838 63.7388 68.657 63.7449C67.6827 63.7502 66.8586 63.4649 66.1847 62.8891C65.5226 62.3256 65.1638 61.5385 65.1083 60.5279L65.8478 60.5239C65.913 61.3002 66.1999 61.9151 66.7085 62.3685C67.2288 62.8218 67.8763 63.0464 68.651 63.0422C69.1792 63.0394 69.6361 62.926 70.0215 62.702C70.4188 62.4779 70.7101 62.2236 70.8955 61.939C71.0809 61.6545 71.2247 61.3085 71.3269 60.9011C71.4291 60.4937 71.4852 60.179 71.495 59.9571C71.5166 59.7351 71.5264 59.5008 71.5243 59.2542L71.5153 58.1817C70.8429 59.1839 69.9022 59.6883 68.6932 59.6948C67.7424 59.7 66.912 59.3531 66.2017 58.6542C65.4915 57.9553 65.1312 56.9833 65.1207 55.7382C65.1112 54.6163 65.432 53.6776 66.0829 52.9221C66.7339 52.1665 67.6111 51.7858 68.7144 51.7798C69.8882 51.7735 70.8079 52.2617 71.4736 53.2443L71.4625 51.9314ZM70.7177 53.3964C70.1961 52.7828 69.5068 52.4783 68.6499 52.4829C67.7931 52.4875 67.1091 52.8118 66.5981 53.4556C66.0986 54.087 65.8528 54.8589 65.8605 55.7712C65.8683 56.6958 66.1271 57.4649 66.6371 58.0786C67.1587 58.6922 67.8363 58.9967 68.6697 58.9922C69.5383 58.9875 70.234 58.6694 70.7569 58.0378C71.2798 57.4062 71.5373 56.6158 71.5292 55.6666C71.5216 54.7666 71.2511 54.0099 70.7177 53.3964Z" fill="white"/>
<path d="M74.6939 51.914L75.3982 51.9102L75.4619 59.4549L74.7576 59.4587L74.6939 51.914ZM75.4692 49.8941C75.3529 50.018 75.2067 50.0804 75.0306 50.0814C74.8545 50.0823 74.7014 50.0215 74.5712 49.8989C74.4527 49.7639 74.3926 49.5978 74.391 49.4006C74.3893 49.2033 74.4466 49.0428 74.563 48.9189C74.6909 48.7825 74.843 48.7139 75.019 48.713C75.1951 48.712 75.3424 48.779 75.4609 48.914C75.5911 49.0366 75.657 49.1965 75.6587 49.3937C75.6603 49.591 75.5972 49.7578 75.4692 49.8941Z" fill="white"/>
<path d="M79.9395 52.5884L78.6894 52.5951L78.7472 59.4371L78.0429 59.4409L77.9851 52.5989L77.1928 52.6032L77.1869 51.9005L77.9792 51.8962L77.9564 49.1964L78.6607 49.1926L78.6835 51.8924L79.9336 51.8857L79.9395 52.5884Z" fill="white"/>
<path d="M87.2046 53.1594L87.1935 51.8465L87.8978 51.8427L87.9614 59.3874L87.2572 59.3912L87.2458 58.0413C86.6089 59.0803 85.6801 59.6031 84.4594 59.6097C83.4852 59.615 82.6546 59.2557 81.9676 58.5321C81.2807 57.8084 80.9322 56.8487 80.9221 55.6529C80.9122 54.4817 81.227 53.5307 81.8664 52.7999C82.5059 52.069 83.3479 51.7008 84.3926 51.6952C85.5899 51.6887 86.5272 52.1768 87.2046 53.1594ZM84.4337 52.3977C83.6708 52.4018 83.0159 52.695 82.4691 53.2774C81.9222 53.8475 81.6529 54.6195 81.6611 55.5934C81.6687 56.4933 81.9277 57.2748 82.438 57.9378C82.9483 58.5884 83.6377 58.9114 84.5063 58.9067C85.3632 58.9021 86.0354 58.5779 86.523 57.9342C87.0222 57.2781 87.2679 56.4877 87.2601 55.5632C87.2514 54.5399 86.9573 53.7587 86.3775 53.2193C85.7977 52.6677 85.1498 52.3938 84.4337 52.3977Z" fill="white"/>
<path d="M90.3764 45.8931L91.0807 45.8893L91.1945 59.3699L90.4902 59.3737L90.3764 45.8931Z" fill="white"/>
<path d="M103.625 53.0707L103.614 51.7578L104.318 51.754L104.382 59.2987L103.678 59.3025L103.666 57.9526C103.029 58.9916 102.101 59.5144 100.88 59.521C99.9056 59.5263 99.075 59.1671 98.388 58.4434C97.7011 57.7197 97.3526 56.76 97.3425 55.5642C97.3326 54.393 97.6474 53.442 98.2868 52.7112C98.9263 51.9804 99.7683 51.6121 100.813 51.6065C102.01 51.6 102.948 52.0881 103.625 53.0707ZM100.854 52.309C100.091 52.3131 99.4363 52.6064 98.8895 53.1888C98.3426 53.7588 98.0733 54.5308 98.0815 55.5047C98.0891 56.4047 98.3481 57.1861 98.8584 57.8491C99.3687 58.4998 100.058 58.8227 100.927 58.8181C101.784 58.8134 102.456 58.4893 102.943 57.8455C103.443 57.1894 103.688 56.3991 103.68 55.4745C103.672 54.4513 103.378 53.67 102.798 53.1307C102.218 52.579 101.57 52.3051 100.854 52.309Z" fill="white"/>
<path d="M112.763 51.7084L113.467 51.7046L113.529 59.0274C113.541 60.4451 113.227 61.544 112.588 62.3242C111.961 63.1166 111.084 63.5158 109.957 63.5219C108.983 63.5272 108.159 63.2419 107.485 62.6661C106.823 62.1026 106.464 61.3155 106.409 60.3049L107.148 60.3009C107.213 61.0772 107.5 61.6921 108.009 62.1455C108.529 62.5988 109.177 62.8234 109.951 62.8192C110.48 62.8164 110.936 62.703 111.322 62.479C111.719 62.2549 112.01 62.0006 112.196 61.716C112.381 61.4315 112.525 61.0855 112.627 60.6781C112.729 60.2707 112.785 59.956 112.795 59.7341C112.817 59.512 112.827 59.2778 112.825 59.0312L112.816 57.9587C112.143 58.9609 111.203 59.4653 109.994 59.4718C109.043 59.477 108.212 59.1301 107.502 58.4312C106.792 57.7323 106.432 56.7603 106.421 55.5152C106.412 54.3933 106.732 53.4546 107.383 52.6991C108.034 51.9435 108.911 51.5628 110.015 51.5568C111.189 51.5505 112.108 52.0386 112.774 53.0213L112.763 51.7084ZM112.018 53.1734C111.496 52.5598 110.807 52.2553 109.95 52.2599C109.093 52.2645 108.409 52.5887 107.898 53.2326C107.399 53.864 107.153 54.6359 107.161 55.5482C107.169 56.4728 107.427 57.2419 107.937 57.8556C108.459 58.4692 109.137 58.7737 109.97 58.7692C110.839 58.7645 111.534 58.4464 112.057 57.8148C112.58 57.1832 112.838 56.3928 112.83 55.4436C112.822 54.5436 112.551 53.7869 112.018 53.1734Z" fill="white"/>
<path d="M122.453 55.5211L116.309 55.5542C116.316 56.4912 116.599 57.254 117.155 57.8428C117.724 58.4315 118.401 58.7237 119.188 58.7194C119.751 58.7164 120.249 58.5596 120.68 58.2491C121.112 57.9262 121.443 57.5052 121.673 56.9862L122.275 57.3528C122.01 57.8967 121.621 58.3796 121.108 58.8015C120.595 59.2112 119.939 59.4181 119.141 59.4224C118.049 59.4283 117.183 59.0631 116.543 58.3269C115.903 57.5783 115.578 56.6369 115.569 55.5028C115.558 54.2576 115.89 53.2819 116.565 52.5755C117.252 51.8691 118.07 51.5133 119.021 51.5082C119.995 51.5029 120.809 51.8746 121.46 52.6231C122.112 53.3716 122.443 54.3376 122.453 55.5211ZM116.355 54.8513L121.708 54.8224C121.608 54.0585 121.309 53.4314 120.812 52.941C120.326 52.4504 119.731 52.2071 119.027 52.2109C118.311 52.2147 117.709 52.4707 117.22 52.9788C116.731 53.4746 116.443 54.0988 116.355 54.8513Z" fill="white"/>
<path d="M124.569 59.1897L124.505 51.645L125.21 51.6412L125.22 52.8247C125.693 51.9221 126.423 51.4682 127.409 51.4629C128.301 51.4581 128.967 51.8058 129.408 52.5062C129.646 52.8994 129.768 53.5337 129.776 54.409L129.816 59.1614L129.112 59.1652L129.071 54.4128C129.066 53.7101 128.967 53.2051 128.777 52.8979C128.491 52.4063 128.019 52.1623 127.362 52.1659C126.564 52.1702 125.98 52.5247 125.61 53.2294C125.356 53.7116 125.233 54.3903 125.24 55.2656L125.273 59.1859L124.569 59.1897Z" fill="white"/>
<path d="M138.058 52.367L138.067 53.3471C137.379 52.5248 136.548 52.1163 135.574 52.1215C134.705 52.1262 133.992 52.4445 133.434 53.0762C132.875 53.6957 132.6 54.4738 132.608 55.4108C132.617 56.4216 132.923 57.2152 133.526 57.7914C134.13 58.3552 134.819 58.635 135.593 58.6309C136.544 58.6257 137.409 58.1711 138.188 57.2669L138.196 58.2654C137.451 58.9722 136.579 59.3283 135.582 59.3337C134.502 59.3395 133.612 58.9744 132.914 58.2385C132.227 57.4902 131.878 56.5551 131.869 55.4332C131.859 54.2867 132.192 53.3357 132.866 52.58C133.54 51.812 134.441 51.4249 135.568 51.4188C136.495 51.4138 137.325 51.7299 138.058 52.367Z" fill="white"/>
<path d="M140.781 63.3555L142.437 59.2227L138.956 51.567L139.766 51.5626L142.834 58.2589L145.4 51.5322L146.21 51.5278L141.591 63.3511L140.781 63.3555Z" fill="white"/>
<rect width="45.8595" height="48.243" rx="22.9298" transform="matrix(0.999994 -0.00408659 0.0108974 0.999947 0.0195312 21.9026)" fill="black"/>
<rect x="1.01089" y="0.99586" width="41.1619" height="43.4052" rx="20.581" transform="matrix(0.999994 -0.00408659 0.0108974 0.999947 1.37587 23.3189)" fill="black" stroke="#FFB800" stroke-width="2"/>
<path d="M14.4729 41.8247L10.1009 41.8426L10.077 39.6526L21.0732 39.6077L21.0971 41.7976L16.7251 41.8155L16.8477 53.0639L14.5954 53.0731L14.4729 41.8247Z" fill="#FFB800"/>
<path d="M23.7484 51.3035C22.4722 49.9815 21.8233 48.325 21.8016 46.3341C21.7799 44.3432 22.4052 42.6749 23.6776 41.3291C24.9375 39.9967 26.539 39.3265 28.4821 39.3185C29.807 39.3131 31.0029 39.6401 32.07 40.2994C33.1498 40.9586 33.9671 41.8578 34.5221 42.997L32.336 43.8621C31.9497 43.1469 31.42 42.5916 30.7469 42.1962C30.0738 41.8007 29.3272 41.6047 28.5071 41.608C27.2706 41.6131 26.2282 42.0686 25.3801 42.9747C24.5444 43.8674 24.1338 44.9774 24.1482 46.3046C24.163 47.6584 24.579 48.7783 25.3962 49.6642C26.2134 50.5502 27.2213 50.9907 28.42 50.9858C29.3537 50.982 30.2022 50.6865 30.9655 50.0994C31.7037 49.5256 32.1939 48.7671 32.4359 47.8237L28.1586 47.8412L28.1349 45.6711L34.9673 45.6432C34.9963 45.9882 35.0113 46.2071 35.0124 46.3C35.0088 48.291 34.3896 49.946 33.1548 51.2651C31.9201 52.5974 30.3691 53.2674 28.5017 53.2751C26.6091 53.2828 25.0247 52.6256 23.7484 51.3035Z" fill="#FFB800"/>
</svg>
