<svg width="88" height="88" viewBox="0 0 88 88" fill="none" xmlns="http://www.w3.org/2000/svg">
<path d="M74.25 25.6703H13.75C12.2312 25.6703 11 26.9015 11 28.4203C11 29.9391 12.2312 31.1703 13.75 31.1703H74.25C75.7688 31.1703 77 29.9391 77 28.4203C77 26.9015 75.7688 25.6703 74.25 25.6703Z" fill="white"/>
<path d="M63.25 41.2537H13.75C12.2312 41.2537 11 42.4849 11 44.0037C11 45.5224 12.2312 46.7537 13.75 46.7537H63.25C64.7688 46.7537 66 45.5224 66 44.0037C66 42.4849 64.7688 41.2537 63.25 41.2537Z" fill="white"/>
<path d="M74.25 56.8297H13.75C12.2312 56.8297 11 58.0609 11 59.5797C11 61.0985 12.2312 62.3297 13.75 62.3297H74.25C75.7688 62.3297 77 61.0985 77 59.5797C77 58.0609 75.7688 56.8297 74.25 56.8297Z" fill="white"/>
</svg>
