<svg width="35" height="35" viewBox="0 0 35 35" fill="none" xmlns="http://www.w3.org/2000/svg">
<path d="M23.4974 11.5749L23.4975 11.5749L23.4951 11.5724C22.5683 10.5849 21.4679 9.91246 20.4471 9.91246C20.1004 9.91246 19.8242 9.63014 19.8242 9.28954C19.8242 8.95319 20.1108 8.66663 20.4471 8.66663C21.7242 8.66663 23.1328 9.36045 24.4153 10.7124C25.6237 11.9913 26.3346 13.5219 26.3346 14.5395C26.3346 14.8905 26.0481 15.177 25.6971 15.177C25.3504 15.177 25.0742 14.8947 25.0742 14.5541C25.0742 14.1591 24.8916 13.6544 24.6337 13.1652C24.3654 12.6563 23.9792 12.0955 23.4974 11.5749Z" fill="url(#paint0_linear_1_5248)" stroke="white"/>
<path d="M30.9589 15.177C30.6121 15.177 30.3359 14.8947 30.3359 14.5541C30.3359 9.10039 25.897 4.67704 20.4589 4.67704C20.1121 4.67704 19.8359 4.39472 19.8359 4.05413C19.8359 3.70079 20.1246 3.41663 20.4443 3.41663C26.5848 3.41663 31.5818 8.4136 31.5818 14.5541C31.5818 14.8905 31.2952 15.177 30.9589 15.177Z" fill="url(#paint1_linear_1_5248)" stroke="white"/>
<path d="M3.90721 6.90857L3.90721 6.90857L3.90825 6.90594C4.22967 6.08899 4.74041 5.333 5.46316 4.65116L5.46324 4.65124L5.47081 4.64379C6.32867 3.79933 7.2288 3.41663 8.15339 3.41663C8.4917 3.41663 8.82548 3.48935 9.11827 3.62989L9.11825 3.62994L9.12511 3.63311C9.42999 3.77382 9.69309 3.98063 9.90062 4.2804L9.9006 4.28042L9.90393 4.28511L13.2873 9.05386L13.2873 9.05387L13.2893 9.05669C13.5337 9.39612 13.7021 9.69724 13.8156 9.97469L13.8155 9.97472L13.8188 9.98234C13.9306 10.2431 13.9826 10.4817 13.9826 10.675C13.9826 10.9243 13.9106 11.1853 13.7492 11.4504L13.745 11.4573L13.741 11.4643C13.5794 11.7504 13.3334 12.0649 13.0061 12.3922L13.006 12.3922L12.9993 12.3991L11.894 13.5481C11.6347 13.8093 11.518 14.1283 11.518 14.4812C11.518 14.6452 11.5393 14.7884 11.5766 14.9379L11.5836 14.9655L11.5936 14.9922C11.6175 15.056 11.6415 15.1126 11.6598 15.156C11.6616 15.1602 11.6634 15.1643 11.665 15.1682C11.6856 15.2169 11.6965 15.2438 11.704 15.2664L11.7181 15.3086L11.7394 15.3477C12.0256 15.8723 12.5024 16.5291 13.1529 17.2979L13.1529 17.298L13.1566 17.3021C13.8179 18.0664 14.525 18.8473 15.2923 19.6293L15.2923 19.6293L15.2957 19.6327C15.3729 19.7099 15.4531 19.7863 15.5281 19.8578L15.5304 19.8599C15.6078 19.9336 15.6799 20.0023 15.7477 20.0702L15.7477 20.0702L15.7523 20.0746C16.1384 20.4511 16.1464 21.0644 15.7623 21.4485L13.0644 24.1464C12.6939 24.517 12.1023 24.5245 11.7102 24.1559C11.6276 24.0735 11.5456 23.9952 11.4682 23.9213L11.4663 23.9195C11.3858 23.8426 11.31 23.7703 11.2348 23.6951C9.75056 22.1964 8.4114 20.6267 7.21685 18.9861C6.03956 17.3492 5.09745 15.7201 4.41462 14.1132C3.74965 12.4995 3.41797 10.9757 3.41797 9.53746C3.41797 8.60505 3.5824 7.7206 3.90721 6.90857Z" fill="url(#paint2_linear_1_5248)" stroke="white"/>
<path d="M31.2278 28.0972L31.2277 28.0971L31.2229 28.1073C30.9948 28.5903 30.7008 29.0444 30.3128 29.4725C29.6574 30.1948 28.9475 30.7098 28.1568 31.0437H28.1501L28.0595 31.0806C27.2591 31.4062 26.3898 31.5833 25.4479 31.5833C24.0395 31.5833 22.5166 31.2519 20.8897 30.5587C19.2517 29.8608 17.608 28.9184 15.9734 27.7285C15.5544 27.4169 15.1427 27.1107 14.7451 26.7953L18.8213 22.7191C19.1088 22.9182 19.3755 23.0816 19.6159 23.2075L19.6385 23.2193L19.6622 23.2288C19.6854 23.2381 19.7145 23.2512 19.7599 23.272C19.7636 23.2736 19.7673 23.2754 19.7712 23.2771C19.8113 23.2955 19.8606 23.3181 19.9135 23.3408L19.9241 23.3453L19.9349 23.3494C20.1246 23.4205 20.305 23.4396 20.475 23.4396C20.862 23.4396 21.1763 23.2947 21.4252 23.0465C21.4256 23.0461 21.426 23.0456 21.4265 23.0452L22.5325 21.9538L22.5325 21.9538L22.5348 21.9514C22.8792 21.6071 23.1884 21.3675 23.4625 21.2245L23.4771 21.2169L23.4912 21.2083C23.7581 21.0459 24.0046 20.975 24.2667 20.975C24.4705 20.975 24.6979 21.0173 24.9669 21.1273C25.2447 21.241 25.5475 21.4101 25.8918 21.644L30.7147 25.0681L30.7147 25.0681L30.7196 25.0715C31.0315 25.2874 31.227 25.5227 31.3453 25.7876C31.4708 26.1035 31.5396 26.4023 31.5396 26.7312C31.5396 27.0796 31.4774 27.4445 31.3512 27.7991C31.3069 27.9172 31.2721 28.0086 31.2278 28.0972Z" fill="url(#paint3_linear_1_5248)" stroke="white"/>
<defs>
<linearGradient id="paint0_linear_1_5248" x1="23.0794" y1="8.16663" x2="23.0794" y2="15.677" gradientUnits="userSpaceOnUse">
<stop stop-color="#004705"/>
<stop offset="1" stop-color="#00AD0C"/>
</linearGradient>
<linearGradient id="paint1_linear_1_5248" x1="25.7089" y1="2.91663" x2="25.7089" y2="15.677" gradientUnits="userSpaceOnUse">
<stop stop-color="#004705"/>
<stop offset="1" stop-color="#00AD0C"/>
</linearGradient>
<linearGradient id="paint2_linear_1_5248" x1="9.73207" y1="2.91663" x2="9.73207" y2="24.9284" gradientUnits="userSpaceOnUse">
<stop stop-color="#004705"/>
<stop offset="1" stop-color="#00AD0C"/>
</linearGradient>
<linearGradient id="paint3_linear_1_5248" x1="23.0198" y1="20.475" x2="23.0198" y2="32.0833" gradientUnits="userSpaceOnUse">
<stop stop-color="#004705"/>
<stop offset="1" stop-color="#00AD0C"/>
</linearGradient>
</defs>
</svg>
