<svg width="66" height="64" viewBox="0 0 66 64" fill="none" xmlns="http://www.w3.org/2000/svg">
<g filter="url(#filter0_bii_1_5179)">
<rect x="0.269531" width="65.3798" height="63.8346" rx="15" fill="white" fill-opacity="0.1"/>
</g>
<rect x="15.1289" y="14.5079" width="35.414" height="34.5771" rx="17.2885" fill="url(#paint0_linear_1_5179)"/>
<g clip-path="url(#clip0_1_5179)" filter="url(#filter1_i_1_5179)">
<path d="M28.1065 39.3898C28.1065 39.0762 28.1065 38.7626 28.1065 38.449C28.1088 38.4361 28.1083 38.423 28.1051 38.4104C28.102 38.3977 28.0961 38.3858 28.088 38.3755C28.0799 38.3651 28.0697 38.3564 28.058 38.35C28.0463 38.3436 28.0333 38.3396 28.0199 38.3383C27.2165 38.1175 26.4749 37.7241 25.8505 37.1874C25.3955 36.787 25.0167 36.3125 24.7312 35.7854C24.3289 35.024 24.0612 34.2029 23.9391 33.356C23.7879 32.2937 23.7354 31.2204 23.7822 30.149C23.7925 29.6495 23.8189 29.1556 23.8775 28.6561C23.9711 27.7069 24.2186 26.7779 24.611 25.9032C25.0954 24.8277 25.9743 23.9638 27.0782 23.478C27.8302 23.1451 28.6213 22.9021 29.434 22.7543C30.231 22.6083 31.038 22.5187 31.8485 22.4861C32.579 22.4611 33.3104 22.4716 34.0399 22.5174C35.084 22.56 36.1187 22.7273 37.1204 23.0154C37.863 23.2225 38.5695 23.5358 39.2165 23.9449C39.8469 24.3635 40.3567 24.9305 40.698 25.5924C41.0993 26.3655 41.372 27.1949 41.5063 28.0502C41.5935 28.558 41.6508 29.0701 41.6779 29.5842C41.716 30.2213 41.7116 30.8613 41.6867 31.4956C41.6618 32.13 41.606 32.7458 41.5253 33.3674C41.4234 34.3002 41.1269 35.2034 40.654 36.0224C40.0384 37.0584 39.0523 37.8407 37.8817 38.2219C37.0812 38.4931 36.2546 38.6861 35.4144 38.798C34.7998 38.8803 34.1837 38.9399 33.5647 38.9641C33.0909 38.9854 32.6171 38.9797 32.1433 38.9726C31.8749 38.9726 31.6079 38.947 31.3409 38.9243C31.3147 38.9196 31.2876 38.9224 31.2631 38.9325C31.2385 38.9426 31.2176 38.9595 31.203 38.9811C30.6632 39.6083 30.1029 40.2185 29.5381 40.8259C29.4353 40.9367 29.3162 41.0323 29.1846 41.1097C29.0983 41.1645 28.9998 41.1989 28.8972 41.2101C28.7946 41.2213 28.6907 41.209 28.5939 41.1742C28.4971 41.1394 28.4101 41.083 28.34 41.0097C28.2698 40.9364 28.2185 40.8481 28.1901 40.7521C28.1342 40.5814 28.1065 40.4032 28.108 40.2242C28.1065 39.9432 28.1065 39.6665 28.1065 39.3898ZM28.7592 40.5804L28.8282 40.5179L30.053 39.2025C30.5244 38.6963 30.9952 38.1897 31.4656 37.6827C31.4887 37.6517 31.5199 37.6273 31.556 37.6118C31.5921 37.5964 31.6317 37.5905 31.671 37.5947C31.8308 37.6103 31.9907 37.616 32.1521 37.6174C32.7095 37.6174 33.2669 37.6174 33.8243 37.5791C34.3304 37.5408 34.835 37.4812 35.3366 37.4045C35.8768 37.3136 36.4115 37.1947 36.9385 37.0484C38.1119 36.7433 39.0199 36.0905 39.5905 35.0333C39.9274 34.3833 40.1387 33.6793 40.214 32.9558C40.3031 32.274 40.3565 31.5882 40.3738 30.9011C40.3999 30.0379 40.3389 29.1744 40.192 28.3227C40.0901 27.7056 39.9067 27.1037 39.6463 26.5318C39.3148 25.8223 38.8454 25.2348 38.1222 24.8574C37.0133 24.2784 35.8134 24.0201 34.5768 23.8881C34.2262 23.8513 33.8757 23.8314 33.5236 23.8186C32.8028 23.7827 32.0804 23.7865 31.36 23.83C30.8419 23.8672 30.3266 23.9345 29.8168 24.0315C29.0672 24.1637 28.342 24.4028 27.665 24.741C27.2725 24.9329 26.9164 25.1876 26.6118 25.4945C26.1181 26.0283 25.756 26.6634 25.5527 27.352C25.3115 28.1541 25.1798 28.9832 25.161 29.8183C25.1138 30.6534 25.1246 31.4907 25.1933 32.3244C25.236 32.8205 25.3219 33.3123 25.45 33.7945C25.6406 34.5459 26.0103 35.2438 26.5296 35.8322C27.0903 36.4326 27.8149 36.8675 28.6199 37.0867C28.7211 37.1165 28.7666 37.1505 28.7666 37.2612C28.7578 37.6699 28.7666 38.0786 28.7666 38.4873L28.7592 40.5804Z" fill="white"/>
<path d="M27.7333 27.9056C27.723 27.5949 27.8976 27.3692 28.1088 27.1663C28.3874 26.9081 28.6943 26.6802 29.0241 26.4866C29.1745 26.3969 29.3533 26.3627 29.5277 26.3903C29.7021 26.418 29.8603 26.5056 29.9732 26.637C30.3722 27.0428 30.7294 27.4853 31.0396 27.9581C31.1932 28.1709 31.3092 28.4068 31.3828 28.6563C31.4123 28.7537 31.4142 28.8569 31.3884 28.9552C31.3626 29.0536 31.31 29.1434 31.2362 29.2154C31.0669 29.3761 30.8866 29.5255 30.6963 29.6624C30.6005 29.7363 30.5292 29.8358 30.4914 29.9486C30.4536 30.0614 30.4509 30.1825 30.4837 30.2967C30.6011 30.8332 30.8673 31.3287 31.2538 31.73C31.7233 32.2845 32.3283 32.7171 33.014 32.9887C33.1825 33.0725 33.3756 33.098 33.5611 33.061C33.6628 33.0342 33.7531 32.9771 33.8193 32.8978C33.922 32.7715 34.0335 32.6495 34.1259 32.5147C34.2457 32.3465 34.4287 32.2303 34.6359 32.1908C34.8431 32.1513 35.058 32.1917 35.2348 32.3033C35.732 32.5823 36.2015 32.9054 36.6371 33.2682C36.7398 33.3533 36.8469 33.4357 36.9496 33.5222C37.0711 33.6119 37.1588 33.7376 37.1994 33.8801C37.2399 34.0226 37.231 34.1741 37.174 34.3112C37.0834 34.5418 36.9513 34.7551 36.7838 34.9413C36.5757 35.2211 36.3107 35.4567 36.0049 35.6338C35.8588 35.7168 35.6945 35.7655 35.5254 35.7761C35.3563 35.7867 35.1869 35.7589 35.0309 35.6948C33.8441 35.2325 32.7352 34.6017 31.7408 33.8231C30.7681 33.0484 29.918 32.14 29.2178 31.1269C28.6285 30.2881 28.1597 29.3759 27.8242 28.4151C27.7885 28.2989 27.7591 28.1809 27.7362 28.0617C27.7297 28.0099 27.7287 27.9576 27.7333 27.9056Z" fill="white"/>
<path d="M32.7978 26.3957C33.7907 26.4135 34.7457 26.7678 35.4963 27.3969C36.2469 28.026 36.7454 28.8901 36.905 29.8383C36.9692 30.1831 37.0036 30.5324 37.0077 30.8827C37.0077 30.965 36.9857 31.0246 36.8947 31.0332C36.8038 31.0417 36.7803 30.9665 36.7803 30.8912C36.7939 30.1827 36.6436 29.4801 36.3402 28.8351C36.0848 28.305 35.7064 27.8391 35.2345 27.4736C34.7625 27.1081 34.2098 26.8529 33.6192 26.7278C33.307 26.6578 32.9877 26.6217 32.6672 26.6199C32.636 26.6204 32.6049 26.6166 32.5748 26.6086C32.5492 26.6016 32.5274 26.5853 32.514 26.563C32.5006 26.5408 32.4966 26.5144 32.5029 26.4894C32.5031 26.4775 32.5058 26.4658 32.5107 26.4549C32.5156 26.4441 32.5227 26.4342 32.5316 26.4261C32.5404 26.4179 32.5509 26.4115 32.5624 26.4072C32.5738 26.403 32.586 26.401 32.5983 26.4014C32.6643 26.3929 32.7318 26.3957 32.7978 26.3957Z" fill="white"/>
<path d="M35.628 30.2442C35.6231 29.8499 35.5228 29.4623 35.335 29.1124C35.1473 28.7624 34.8774 28.4599 34.547 28.2291C34.1613 27.9671 33.713 27.8044 33.2444 27.7566C33.1652 27.7466 33.086 27.7424 33.0053 27.7339C32.9246 27.7254 32.8762 27.6927 32.8835 27.6132C32.8909 27.5338 32.9422 27.5054 33.0302 27.5111C34.3299 27.5877 35.4359 28.2986 35.7762 29.6226C35.8384 29.8779 35.8695 30.1394 35.8686 30.4017C35.8686 30.4258 35.8686 30.4499 35.8686 30.4726C35.8686 30.5436 35.8217 30.5904 35.7498 30.589C35.7338 30.5885 35.7182 30.5848 35.7038 30.5782C35.6893 30.5717 35.6764 30.5623 35.6659 30.5508C35.6553 30.5392 35.6473 30.5257 35.6423 30.511C35.6373 30.4964 35.6354 30.4809 35.6368 30.4655C35.6251 30.3988 35.628 30.3307 35.628 30.2442Z" fill="white"/>
<path d="M33.3526 28.6632C34.0655 28.71 34.5628 29.0478 34.6992 29.7814C34.7158 29.8754 34.7275 29.9701 34.7344 30.0652C34.7344 30.1419 34.7168 30.2071 34.6303 30.2071C34.5437 30.2071 34.5144 30.1504 34.5115 30.0652C34.5107 29.784 34.4211 29.5097 34.2548 29.2791C34.08 29.0702 33.829 28.9341 33.5536 28.8988C33.492 28.8876 33.4298 28.8801 33.3673 28.8761C33.2646 28.8761 33.2074 28.8264 33.2206 28.7498C33.2338 28.6732 33.2954 28.659 33.3526 28.6632Z" fill="white"/>
</g>
<defs>
<filter id="filter0_bii_1_5179" x="-25.9971" y="-26.2667" width="117.912" height="116.368" filterUnits="userSpaceOnUse" color-interpolation-filters="sRGB">
<feFlood flood-opacity="0" result="BackgroundImageFix"/>
<feGaussianBlur in="BackgroundImageFix" stdDeviation="13.1333"/>
<feComposite in2="SourceAlpha" operator="in" result="effect1_backgroundBlur_1_5179"/>
<feBlend mode="normal" in="SourceGraphic" in2="effect1_backgroundBlur_1_5179" result="shape"/>
<feColorMatrix in="SourceAlpha" type="matrix" values="0 0 0 0 0 0 0 0 0 0 0 0 0 0 0 0 0 0 127 0" result="hardAlpha"/>
<feOffset dx="-1.33333" dy="1.33333"/>
<feGaussianBlur stdDeviation="0.666667"/>
<feComposite in2="hardAlpha" operator="arithmetic" k2="-1" k3="1"/>
<feColorMatrix type="matrix" values="0 0 0 0 1 0 0 0 0 1 0 0 0 0 1 0 0 0 0.4 0"/>
<feBlend mode="normal" in2="shape" result="effect2_innerShadow_1_5179"/>
<feColorMatrix in="SourceAlpha" type="matrix" values="0 0 0 0 0 0 0 0 0 0 0 0 0 0 0 0 0 0 127 0" result="hardAlpha"/>
<feOffset dx="1.33333" dy="-1.33333"/>
<feGaussianBlur stdDeviation="0.666667"/>
<feComposite in2="hardAlpha" operator="arithmetic" k2="-1" k3="1"/>
<feColorMatrix type="matrix" values="0 0 0 0 0.84 0 0 0 0 0.84 0 0 0 0 0.84 0 0 0 0.4 0"/>
<feBlend mode="normal" in2="effect2_innerShadow_1_5179" result="effect3_innerShadow_1_5179"/>
</filter>
<filter id="filter1_i_1_5179" x="23.2852" y="22.4729" width="19.1953" height="19.2412" filterUnits="userSpaceOnUse" color-interpolation-filters="sRGB">
<feFlood flood-opacity="0" result="BackgroundImageFix"/>
<feBlend mode="normal" in="SourceGraphic" in2="BackgroundImageFix" result="shape"/>
<feColorMatrix in="SourceAlpha" type="matrix" values="0 0 0 0 0 0 0 0 0 0 0 0 0 0 0 0 0 0 127 0" result="hardAlpha"/>
<feOffset dy="0.5"/>
<feGaussianBlur stdDeviation="1.25"/>
<feComposite in2="hardAlpha" operator="arithmetic" k2="-1" k3="1"/>
<feColorMatrix type="matrix" values="0 0 0 0 0 0 0 0 0 0 0 0 0 0 0 0 0 0 0.1 0"/>
<feBlend mode="normal" in2="shape" result="effect1_innerShadow_1_5179"/>
</filter>
<linearGradient id="paint0_linear_1_5179" x1="18.2481" y1="17.0848" x2="47.0008" y2="48.9277" gradientUnits="userSpaceOnUse">
<stop stop-color="#754A91"/>
<stop offset="1" stop-color="#54008A"/>
</linearGradient>
<clipPath id="clip0_1_5179">
<rect width="19.1948" height="18.7412" fill="white" transform="translate(23.2852 22.4729)"/>
</clipPath>
</defs>
</svg>
